<svg viewBox="0 0 48 48"><g class="gray-fill"> <path d="M23.9,7.1c5.5,0,6.1,0,8.3,0.1c2,0.1,3.1,0.4,3.8,0.7c0.9,0.3,1.7,0.9,2.4,1.5c0.7,0.7,1.2,1.5,1.5,2.4 c0.3,0.7,0.6,1.8,0.7,3.8c0.1,2.2,0.1,2.8,0.1,8.3s0,6.1-0.1,8.3c-0.1,2-0.4,3.1-0.7,3.8c-0.7,1.8-2.1,3.2-3.9,3.9 c-0.7,0.3-1.8,0.6-3.8,0.7c-2.2,0.1-2.8,0.1-8.3,0.1s-6.1,0-8.3-0.1c-2-0.1-3.1-0.4-3.8-0.7c-0.9-0.3-1.7-0.9-2.4-1.5 c-0.7-0.7-1.2-1.5-1.5-2.4c-0.3-0.7-0.6-1.8-0.7-3.8c-0.1-2.2-0.1-2.8-0.1-8.3s0-6.1,0.1-8.3c0.1-2,0.4-3.1,0.7-3.8 c0.3-0.9,0.9-1.7,1.5-2.4c0.7-0.7,1.5-1.2,2.4-1.5c0.7-0.3,1.8-0.6,3.8-0.7C17.8,7.1,18.5,7.1,23.9,7.1 M23.9,3.4 c-5.6,0-6.3,0-8.5,0.1c-2.2,0.1-3.7,0.4-5,1C9.1,5,7.9,5.8,6.9,6.8c-1,1-1.9,2.3-2.4,3.6c-0.5,1.3-0.9,2.8-1,5 c-0.1,2.2-0.1,2.9-0.1,8.5s0,6.3,0.1,8.5c0.1,2.2,0.4,3.7,1,5C5,38.7,5.8,40,6.9,41c1,1,2.3,1.9,3.6,2.4c1.3,0.5,2.8,0.9,5,1 c2.2,0.1,2.9,0.1,8.5,0.1s6.3,0,8.5-0.1c2.2-0.1,3.7-0.4,5-1c2.8-1.1,4.9-3.2,6-6c0.5-1.3,0.9-2.8,1-5c0.1-2.2,0.1-2.9,0.1-8.5 s0-6.3-0.1-8.5c-0.1-2.2-0.4-3.7-1-5c-0.5-1.4-1.3-2.6-2.4-3.6c-1-1-2.3-1.9-3.6-2.4c-1.3-0.5-2.8-0.9-5-1 C30.2,3.4,29.5,3.4,23.9,3.4L23.9,3.4L23.9,3.4z"></path> <path d="M23.9,13.4c-5.8,0-10.5,4.7-10.5,10.5s4.7,10.5,10.5,10.5s10.5-4.7,10.5-10.5l0,0C34.5,18.1,29.8,13.4,23.9,13.4z M23.9,30.8c-3.8,0-6.8-3.1-6.8-6.8c0-3.8,3.1-6.8,6.8-6.8c3.8,0,6.8,3.1,6.8,6.8C30.8,27.7,27.7,30.8,23.9,30.8z"></path> <circle cx="34.9" cy="13" r="2.5"></circle> </g></svg>
