<svg viewBox="0 0 48 48"><g class="gray-fill"> <path d="M40.9331436,11.1940288 C42.810084,10.0689342 44.2513785,8.28745345 44.9301304,6.16481389 C43.1737706,7.20644208 41.2282743,7.96298797 39.1576594,8.37075777 C37.4993523,6.6040254 35.1368481,5.5 32.5223241,5.5 C27.501861,5.5 23.4316182,9.57008073 23.4316182,14.5902197 C23.4316182,15.3026824 23.5121673,15.9965069 23.6671068,16.661807 C16.1120205,16.2827237 9.4138018,12.6636857 4.93027879,7.16397957 C4.1478016,8.50657299 3.69951412,10.0681239 3.69951412,11.7340483 C3.69951412,14.8877815 5.30449997,17.6702107 7.74366355,19.3003175 C6.25342374,19.253155 4.85183659,18.8442507 3.62609611,18.1633918 C3.62544783,18.2013163 3.62544783,18.2394029 3.62544783,18.2776516 C3.62544783,22.6820841 6.75892216,26.3562262 10.9174935,27.1912143 C10.1546268,27.3989889 9.35156666,27.5100073 8.52241311,27.5100073 C7.93668971,27.5100073 7.36717338,27.4531205 6.81224341,27.3469642 C7.96894178,30.958547 11.3260736,33.586685 15.3039361,33.660103 C12.1928276,36.0981321 8.27314842,37.5514198 4.01425536,37.5514198 C3.28056144,37.5514198 2.5569159,37.5084711 1.8457498,37.4245184 C5.86866797,40.0037111 10.6469975,41.5085373 15.780586,41.5085373 C32.5010928,41.5085373 41.6444717,27.6568433 41.6444717,15.6443274 C41.6444717,15.2501715 41.6357199,14.8581225 41.6182163,14.4683426 C43.3941867,13.1866877 44.9354788,11.5855916 46.1542502,9.76262068 C44.5239813,10.4856179 42.7719974,10.974261 40.9331436,11.1940288 Z"></path> </g></svg>
